<svg xmlns="http://www.w3.org/2000/svg" viewBox="0 0 1024 1024" role="img" aria-labelledby="title">
  <title id="title">BXT impact logo concept A</title>
  <g transform="translate(512 512) rotate(-7) skewX(-8) translate(-512 -512)">
    <path
      fill="#000"
      d="M116 286h210c76 0 124 36 124 95 0 37-20 63-57 80 48 16 74 51 74 97 0 67-52 108-138 108H116V286Zm108 82v68h78c29 0 45-13 45-34 0-22-16-34-45-34h-78Zm0 146v70h89c31 0 49-13 49-35 0-23-18-35-49-35h-89Z"
    />
    <path
      fill="#000"
      d="M452 286h129l67 104 69-104h128L718 473l132 193H719l-72-112-75 112H442l133-193-123-187Z"
    />
    <path
      fill="#000"
      d="M735 286h222v92h-61v198l-74 90h-46V378h-41v-92Z"
    />
    <path
      fill="#000"
      d="M851 344h94c37 0 62 25 62 61v74c0 37-25 62-62 62h-94V344Zm45 57v84h28c14 0 23-9 23-23v-38c0-14-9-23-23-23h-28Z"
    />
  </g>
  <path fill="#e11919" d="M641 439h74l-40 47 58 17-80 38 16-50-64-16 36-36Z" />
</svg>
